<svg xmlns="http://www.w3.org/2000/svg" viewBox="0 0 640 640"><defs><style>.a{fill:#f3f4f5;}.b{fill:#646c7f;}.c{fill:#0087f7;}</style></defs><title>logo</title><rect class="a" width="640" height="640"/><path class="b" d="M78.67,263.72l28.57,76.4H89.79L84,323.1H55.45l-6,17H32.55l28.89-76.4H78.67Zm1,46.87-9.63-28H69.78l-10,28H79.63Z"/><path class="b" d="M127.88,263.72v76.4H112.69v-76.4h15.19Z"/><path class="b" d="M155.49,263.72v76.4H140.3v-76.4h15.19Z"/><path class="b" d="M167.79,300.47a25.3,25.3,0,0,1,14.77-15.09,31.59,31.59,0,0,1,11.77-2.09,32,32,0,0,1,11.82,2.09A25.19,25.19,0,0,1,221,300.47a34,34,0,0,1,2,12,33.54,33.54,0,0,1-2,12,26,26,0,0,1-5.78,9.15,25.17,25.17,0,0,1-9,5.83,32.81,32.81,0,0,1-11.82,2,32.37,32.37,0,0,1-11.77-2,25.24,25.24,0,0,1-9-5.83,26,26,0,0,1-5.78-9.15,33.5,33.5,0,0,1-2-12A34,34,0,0,1,167.79,300.47ZM181.6,319a17.21,17.21,0,0,0,2.19,5.67,11.66,11.66,0,0,0,4.12,4,12.56,12.56,0,0,0,6.42,1.5,12.86,12.86,0,0,0,6.47-1.5,11.55,11.55,0,0,0,4.17-4,17.25,17.25,0,0,0,2.19-5.67,32.4,32.4,0,0,0,.64-6.47,33.22,33.22,0,0,0-.64-6.53,16.68,16.68,0,0,0-2.19-5.67,12.19,12.19,0,0,0-4.17-4,12.53,12.53,0,0,0-6.47-1.55,11.68,11.68,0,0,0-10.54,5.56A16.64,16.64,0,0,0,181.6,306a33.22,33.22,0,0,0-.64,6.53A32.4,32.4,0,0,0,181.6,319Z"/><path class="b" d="M259.28,294.75a10.68,10.68,0,0,0-6.1,1.66,13.18,13.18,0,0,0-4,4.28,18.5,18.5,0,0,0-2.19,5.78,31.37,31.37,0,0,0-.64,6.26,30.07,30.07,0,0,0,.64,6.1,18.85,18.85,0,0,0,2.09,5.62,12,12,0,0,0,3.91,4.12,10.74,10.74,0,0,0,6,1.6q5.46,0,8.4-3a14.43,14.43,0,0,0,3.69-8.18h14.66q-1.5,11-8.56,16.8t-18.08,5.78a30.28,30.28,0,0,1-11.4-2.09,25.24,25.24,0,0,1-8.83-5.83,26.51,26.51,0,0,1-5.67-8.93,31,31,0,0,1-2-11.4A36.84,36.84,0,0,1,233,301.33a26.81,26.81,0,0,1,5.51-9.52,25.2,25.2,0,0,1,8.88-6.26,30.17,30.17,0,0,1,12-2.25,34.72,34.72,0,0,1,9.47,1.28,25.31,25.31,0,0,1,8.13,3.91,20.2,20.2,0,0,1,8.4,15.78H270.51Q269,294.75,259.28,294.75Z"/><path class="b" d="M293.63,301.81a17.64,17.64,0,0,1,2.67-8.88,18.21,18.21,0,0,1,6-5.67,26.11,26.11,0,0,1,8.19-3,46.6,46.6,0,0,1,9.15-.91,62.12,62.12,0,0,1,8.45.59,25.89,25.89,0,0,1,7.81,2.3,15.39,15.39,0,0,1,5.78,4.76,13.3,13.3,0,0,1,2.25,8.08v28.78a57.64,57.64,0,0,0,.43,7.17,12.92,12.92,0,0,0,1.5,5.14H330.43a21.69,21.69,0,0,1-.7-2.62,22.53,22.53,0,0,1-.37-2.73A19.8,19.8,0,0,1,320.8,340a34.38,34.38,0,0,1-10.06,1.5,27.15,27.15,0,0,1-7.38-1,16.87,16.87,0,0,1-6-3,13.92,13.92,0,0,1-4-5.14,17.36,17.36,0,0,1-1.44-7.38,16.12,16.12,0,0,1,1.66-7.76,13.86,13.86,0,0,1,4.28-4.87,19.19,19.19,0,0,1,6-2.73,64.32,64.32,0,0,1,6.79-1.44q3.42-.53,6.74-0.86a40.58,40.58,0,0,0,5.88-1,10.27,10.27,0,0,0,4.07-1.87,4.11,4.11,0,0,0,1.39-3.58,8.07,8.07,0,0,0-.8-3.91,5.91,5.91,0,0,0-2.14-2.25,8.43,8.43,0,0,0-3.1-1.07,25.63,25.63,0,0,0-3.8-.27,11.53,11.53,0,0,0-7.06,1.93q-2.57,1.92-3,6.42H293.63ZM328.72,313a6.79,6.79,0,0,1-2.41,1.34,24.56,24.56,0,0,1-3.1.8q-1.66.32-3.48,0.53t-3.64.54a27.41,27.41,0,0,0-3.37.86,10,10,0,0,0-2.89,1.44,6.86,6.86,0,0,0-2,2.3,7.39,7.39,0,0,0-.75,3.53,7.14,7.14,0,0,0,.75,3.42,5.73,5.73,0,0,0,2,2.19,8.57,8.57,0,0,0,3,1.12,19.12,19.12,0,0,0,3.53.32,13.42,13.42,0,0,0,7-1.5,10,10,0,0,0,3.64-3.58,11.48,11.48,0,0,0,1.44-4.23,29.17,29.17,0,0,0,.27-3.42V313Z"/><path class="b" d="M386.07,284.8V295H374.94v27.39q0,3.85,1.28,5.14t5.14,1.28q1.28,0,2.46-.11a20.84,20.84,0,0,0,2.25-.32v11.77a36.21,36.21,0,0,1-4.28.43q-2.36.11-4.6,0.11a44.42,44.42,0,0,1-6.69-.48,15.75,15.75,0,0,1-5.56-1.87,9.9,9.9,0,0,1-3.8-4,14.13,14.13,0,0,1-1.39-6.74V295h-9.2V284.8h9.2V268.21h15.19V284.8h11.13Z"/><path class="b" d="M409.61,326.85q3.42,3.32,9.84,3.32a13.54,13.54,0,0,0,7.92-2.3q3.31-2.3,4.07-4.87h13.38q-3.21,10-9.84,14.23t-16,4.28a31.6,31.6,0,0,1-11.77-2.09,24.47,24.47,0,0,1-8.88-5.94,26.7,26.7,0,0,1-5.62-9.2,33.67,33.67,0,0,1-2-11.77,32.27,32.27,0,0,1,2-11.56,26.74,26.74,0,0,1,14.71-15.41,28.64,28.64,0,0,1,11.5-2.25,26.31,26.31,0,0,1,12.3,2.73,24.58,24.58,0,0,1,8.61,7.33,30.15,30.15,0,0,1,4.87,10.49,39.11,39.11,0,0,1,1.07,12.31H405.87Q406.19,323.53,409.61,326.85Zm17.17-29.1q-2.73-3-8.29-3a13.23,13.23,0,0,0-6,1.23,11.53,11.53,0,0,0-3.85,3,11.19,11.19,0,0,0-2,3.85,17.37,17.37,0,0,0-.7,3.64h24.72Q429.51,300.74,426.78,297.74Z"/><path class="c" d="M487.93,263.72L493.82,319H494l29.42-55.32h23.43l-16.16,76.4H515l13.91-60.78H528.7l-32.31,60.78H483.55l-7.38-60.78H476L464.5,340.12H448.67l16-76.4h23.22Z"/><path class="c" d="M561.66,317.11v2.25a10.56,10.56,0,0,0,3,7.81q3,3,9.2,3a10.86,10.86,0,0,0,4-.7,11.9,11.9,0,0,0,3.1-1.77,12.82,12.82,0,0,0,2.35-2.46q1-1.39,1.87-2.67h15.19a38.87,38.87,0,0,1-4.28,8.24,23.92,23.92,0,0,1-5.88,5.94,24.32,24.32,0,0,1-8,3.58,42.32,42.32,0,0,1-10.54,1.18A32.21,32.21,0,0,1,561.6,340a20.29,20.29,0,0,1-7.76-4.55,20.64,20.64,0,0,1-5-7.54,28.58,28.58,0,0,1-1.77-10.49,38.62,38.62,0,0,1,2.14-12.79,35.36,35.36,0,0,1,6-10.91,29,29,0,0,1,9.58-7.6,28.09,28.09,0,0,1,12.73-2.84,35,35,0,0,1,10.54,1.5,21.61,21.61,0,0,1,8.13,4.55,20.71,20.71,0,0,1,5.24,7.6,27.56,27.56,0,0,1,1.87,10.54,47.51,47.51,0,0,1-.86,8.67H561.76A4.9,4.9,0,0,0,561.66,317.11Zm26.7-14.82a10.65,10.65,0,0,0-1.44-3.8,7.53,7.53,0,0,0-3.1-2.73,12,12,0,0,0-5.35-1,15.5,15.5,0,0,0-5.67,1,14.23,14.23,0,0,0-4.28,2.57,14.74,14.74,0,0,0-3,3.75,28.58,28.58,0,0,0-2.09,4.49h25.36A23.93,23.93,0,0,0,588.35,302.29Z"/></svg>